<?xml version="1.0" encoding="UTF-8"?>
<!-- Created with Inkscape (http://www.inkscape.org/) -->
<svg width="190.76mm" height="190.77mm" version="1.1" xmlns="http://www.w3.org/2000/svg" xmlns:cc="http://creativecommons.org/ns#" xmlns:dc="http://purl.org/dc/elements/1.1/" xmlns:rdf="http://www.w3.org/1999/02/22-rdf-syntax-ns#">
 <metadata>
  <rdf:RDF>
   <cc:Work rdf:about="">
    <dc:format>image/svg+xml</dc:format>
    <dc:type rdf:resource="http://purl.org/dc/dcmitype/StillImage"/>
   </cc:Work>
  </rdf:RDF>
 </metadata>
 <g transform="translate(-11.561 -165.67)">
  <path d="m368.06 166.28c-194.53 2.0437-353.01 158.92-355.91 354.56v11.312c3.2288 194.34 160.18 351.03 354.53 353.91 198.75 2.9465 362.27-155.78 365.22-354.53s-155.78-362.27-354.53-365.22c-3.1055-0.046-6.2247-0.0637-9.3125-0.0312zm-30.188 145.06h68.344c2.0977 0 3.7812 1.6835 3.7812 3.7812v173.09h173.09c2.0977 0 3.7812 1.6835 3.7812 3.7812v68.344c0 2.0977-1.6835 3.8125-3.7812 3.8125h-173.09v173.09c0 2.0977-1.6835 3.7812-3.7812 3.7812h-68.344c-2.0977 0-3.7812-1.6835-3.7812-3.7812v-173.09h-173.09c-2.0977 0-3.7812-1.7148-3.7812-3.8125v-68.344c0-2.0977 1.6835-3.7812 3.7812-3.7812h173.09v-173.09c0-2.0977 1.6835-3.7812 3.7812-3.7812z" fill-rule="evenodd" stroke="#000" stroke-width="1.1822px"/>
 </g>
</svg>
